<svg width="80" height="160" viewBox="0 0 80 160" fill="none" xmlns="http://www.w3.org/2000/svg">
<g clip-path="url(#clip0_56_26)">
<rect width="80" height="160" fill="#1C2637"/>
<circle cx="50" cy="46" r="5" fill="#445066"/>
<circle cx="10" cy="75" r="5" fill="#445066"/>
<circle cx="10" cy="150" r="5" fill="#445066"/>
<circle cx="70" cy="130" r="5" fill="#445066"/>
<circle cx="50" cy="105" r="5" fill="#445066"/>
<circle cx="50" cy="80" r="5" fill="#445066"/>
<circle cx="30" cy="135" r="5" fill="#445066"/>
<circle cx="10" cy="14.5" r="5" fill="#445066"/>
<path d="M10 150V17" stroke="#445066" stroke-width="2"/>
<path d="M50 160V78" stroke="#445066" stroke-width="2"/>
<path d="M10 110H30V40H10" stroke="#445066" stroke-width="2"/>
<path d="M50 150H30V120H50" stroke="#445066" stroke-width="2"/>
<path d="M70.5 61H50V30H70" stroke="#445066" stroke-width="2"/>
<path d="M10 15L50 15L50 -0.999997" stroke="#445066" stroke-width="2"/>
<path d="M50 105H70V0" stroke="#445066" stroke-width="2"/>
<path d="M70 210V133" stroke="#445066" stroke-width="2"/>
</g>
<defs>
<clipPath id="clip0_56_26">
<rect width="80" height="160" fill="white"/>
</clipPath>
</defs>
</svg>
