<svg width="64" height="64" viewBox="0 0 64 64" fill="none" xmlns="http://www.w3.org/2000/svg">
  <rect x="1" y="1" width="62" height="62" rx="15" fill="#F2F7FF"/>
  <path fill-rule="evenodd" clip-rule="evenodd" d="M28 12C28 14.9611 26.3912 17.5465 24 18.9297V37.6642C26.4498 36.5938 29.1556 36 32 36C36.4183 36 40 32.4183 40 28V26.9297C37.6088 25.5465 36 22.9611 36 20C36 15.5817 39.5817 12 44 12C48.4183 12 52 15.5817 52 20C52 22.9611 50.3912 25.5465 48 26.9297V28C48 36.8366 40.8366 44 32 44C29.5286 44 27.2318 44.7471 25.3229 46.0277C26.9656 47.4929 28 49.6256 28 52C28 56.4183 24.4183 60 20 60C15.5817 60 12 56.4183 12 52C12 49.0389 13.6088 46.4535 16 45.0703V18.9297C13.6088 17.5465 12 14.9611 12 12C12 7.58172 15.5817 4 20 4C24.4183 4 28 7.58172 28 12ZM16 52C16 49.7909 17.7909 48 20 48C22.2091 48 24 49.7909 24 52C24 54.2091 22.2091 56 20 56C17.7909 56 16 54.2091 16 52ZM24 12C24 14.2091 22.2091 16 20 16C17.7909 16 16 14.2091 16 12C16 9.79086 17.7909 8 20 8C22.2091 8 24 9.79086 24 12ZM48 20C48 22.2091 46.2091 24 44 24C41.7909 24 40 22.2091 40 20C40 17.7909 41.7909 16 44 16C46.2091 16 48 17.7909 48 20Z" fill="black"/>
  <circle cx="45" cy="53" r="7" fill="#0073DE"/>
  <rect x="1" y="1" width="62" height="62" rx="15" stroke="#141B27" stroke-width="2"/>
</svg>
