<svg xmlns="http://www.w3.org/2000/svg" width="80" height="160" viewBox="0 0 80 160"><g fill="#1C2637"><path fill-rule="evenodd" d="M51 0H49V11.78C49 12.3663 48.9992 12.7448 48.9753 13.0328C48.9524 13.3088 48.9135 13.4108 48.8874 13.461C48.7925 13.6436 48.6436 13.7925 48.461 13.8874C48.4108 13.9135 48.3088 13.9524 48.0328 13.9753C47.7448 13.9992 47.3663 14 46.78 14L14.9753 14C14.7244 11.4733 12.5927 9.5 10 9.5C7.23858 9.5 5 11.7386 5 14.5C5 16.919 6.71776 18.9367 9 19.4V70.1C6.71776 70.5633 5 72.581 5 75C5 77.419 6.71776 79.4367 9 79.9V145.1C6.71776 145.563 5 147.581 5 150C5 152.761 7.23858 155 10 155C12.7614 155 15 152.761 15 150C15 147.581 13.2822 145.563 11 145.1V111H26.8191C27.3549 111 27.8178 111 28.1983 110.968C28.6002 110.935 28.9997 110.861 29.3829 110.662C29.9309 110.378 30.3776 109.931 30.6622 109.383C30.8613 109 30.935 108.6 30.9684 108.198C31 107.818 31 107.355 31 106.819V43.1808C31 42.6449 31 42.1823 30.9684 41.8017C30.935 41.3998 30.8613 41.0003 30.6622 40.6171C30.3776 40.0691 29.9309 39.6224 29.3829 39.3378C28.9997 39.1387 28.6002 39.065 28.1983 39.0316C27.8176 39 27.3552 39 26.8192 39H11V19.4C12.7892 19.0368 14.2314 17.7183 14.7711 16H46.8192C47.3552 16 47.8176 16 48.1983 15.9684C48.6002 15.935 48.9997 15.8613 49.3829 15.6622C49.9309 15.3776 50.3776 14.9309 50.6622 14.3829C50.8613 13.9997 50.935 13.6002 50.9684 13.1983C51 12.8176 51 12.3553 51 11.8193V0ZM11 70.1V41H26.78C27.3663 41 27.7448 41.0008 28.0328 41.0247C28.3088 41.0476 28.4108 41.0865 28.461 41.1126C28.6436 41.2075 28.7925 41.3564 28.8874 41.539C28.9135 41.5892 28.9524 41.6912 28.9753 41.9672C28.9992 42.2552 29 42.6337 29 43.22V106.78C29 107.366 28.9992 107.745 28.9753 108.033C28.9524 108.309 28.9135 108.411 28.8874 108.461C28.7925 108.644 28.6436 108.793 28.461 108.887C28.4108 108.913 28.3088 108.952 28.0328 108.975C27.7448 108.999 27.3663 109 26.78 109H11V79.9C13.2822 79.4367 15 77.419 15 75C15 72.581 13.2822 70.5633 11 70.1Z" clip-rule="evenodd"/><path fill-rule="evenodd" d="M45 46C45 43.581 46.7178 41.5633 49 41.1V33.1808C49 32.6448 49 32.1824 49.0316 31.8017C49.065 31.3998 49.1387 31.0003 49.3378 30.6171C49.6224 30.0691 50.0691 29.6224 50.6171 29.3378C51.0003 29.1387 51.3998 29.065 51.8017 29.0316C52.1823 29 52.6447 29 53.1807 29L69 29V0H71V101.819C71 102.355 71 102.818 70.9684 103.198C70.935 103.6 70.8613 104 70.6622 104.383C70.3776 104.931 69.9309 105.378 69.3829 105.662C68.9997 105.861 68.6002 105.935 68.1983 105.968C67.8177 106 67.3555 106 66.8197 106H54.9C54.5023 107.959 52.9591 109.502 51 109.9V160H49V151H33.1808C32.6448 151 32.1824 151 31.8017 150.968C31.3998 150.935 31.0003 150.861 30.6171 150.662C30.0691 150.378 29.6224 149.931 29.3378 149.383C29.1387 149 29.065 148.6 29.0316 148.198C29 147.818 29 147.355 29 146.819V139.9C26.7178 139.437 25 137.419 25 135C25 132.581 26.7178 130.563 29 130.1V123.181C29 122.645 29 122.182 29.0316 121.802C29.065 121.4 29.1387 121 29.3378 120.617C29.6224 120.069 30.0691 119.622 30.6171 119.338C31.0003 119.139 31.3998 119.065 31.8017 119.032C32.1824 119 32.6448 119 33.1808 119H49V109.9C46.7178 109.437 45 107.419 45 105C45 102.581 46.7178 100.563 49 100.1V84.9C46.7178 84.4367 45 82.419 45 80C45 77.2386 47.2386 75 50 75C52.7614 75 55 77.2386 55 80C55 82.419 53.2822 84.4367 51 84.9V100.1C52.9591 100.498 54.5023 102.041 54.9 104H66.78C67.3663 104 67.7448 103.999 68.0328 103.975C68.3088 103.952 68.4108 103.913 68.461 103.887C68.6436 103.793 68.7925 103.644 68.8874 103.461C68.9135 103.411 68.9524 103.309 68.9753 103.033C68.9992 102.745 69 102.366 69 101.78V62H53.1807C52.6448 62 52.1823 62 51.8017 61.9684C51.3998 61.935 51.0003 61.8613 50.6171 61.6622C50.0691 61.3776 49.6224 60.9309 49.3378 60.3829C49.1387 59.9997 49.065 59.6002 49.0316 59.1983C49 58.8176 49 58.3552 49 57.8192V50.9C46.7178 50.4367 45 48.419 45 46ZM53.22 31H69V60H53.22C52.6337 60 52.2552 59.9992 51.9672 59.9753C51.6912 59.9524 51.5892 59.9135 51.539 59.8874C51.3564 59.7925 51.2075 59.6436 51.1126 59.461C51.0865 59.4108 51.0476 59.3088 51.0247 59.0328C51.0008 58.7448 51 58.3663 51 57.78V50.9C53.2822 50.4367 55 48.419 55 46C55 43.581 53.2822 41.5633 51 41.1V33.22C51 32.6337 51.0008 32.2552 51.0247 31.9672C51.0476 31.6912 51.0865 31.5892 51.1126 31.539C51.2075 31.3564 51.3564 31.2075 51.539 31.1126C51.5892 31.0865 51.6912 31.0476 51.9672 31.0247C52.2552 31.0008 52.6337 31 53.22 31ZM49 121H33.22C32.6337 121 32.2552 121.001 31.9672 121.025C31.6912 121.048 31.5892 121.087 31.539 121.113C31.3564 121.207 31.2075 121.356 31.1126 121.539C31.0865 121.589 31.0476 121.691 31.0247 121.967C31.0008 122.255 31 122.634 31 123.22V130.1C33.2822 130.563 35 132.581 35 135C35 137.419 33.2822 139.437 31 139.9V146.78C31 147.366 31.0008 147.745 31.0247 148.033C31.0476 148.309 31.0865 148.411 31.1126 148.461C31.2075 148.644 31.3564 148.793 31.539 148.887C31.5892 148.913 31.6912 148.952 31.9672 148.975C32.2552 148.999 32.6337 149 33.22 149H49V121Z" clip-rule="evenodd"/><path d="M71 134.9C73.2822 134.437 75 132.419 75 130C75 127.239 72.7614 125 70 125C67.2386 125 65 127.239 65 130C65 132.419 66.7178 134.437 69 134.9V160H71V134.9Z"/></g></svg>