<svg width="64" height="64" viewBox="0 0 64 64" fill="none" xmlns="http://www.w3.org/2000/svg">
<rect width="64" height="64" rx="16" fill="#F2F7FF"/>
<path fill-rule="evenodd" clip-rule="evenodd" d="M28.2 13C28.2 15.813 26.6716 18.2691 24.4 19.5832V37.3809C26.7184 36.3679 29.2781 35.8043 31.9689 35.8H32V35.8C36.1973 35.8 39.5999 32.3973 39.5999 28.2V28.2H39.6V27.1832C37.3284 25.8691 35.8 23.413 35.8 20.6C35.8 16.4026 39.2026 13 43.4 13C47.5974 13 51 16.4026 51 20.6C51 23.413 49.4716 25.8691 47.2 27.1832V28.2C47.2 36.5882 40.4053 43.3894 32.0196 43.4H32V43.3999C29.6522 43.3999 27.4701 44.1096 25.6567 45.3263C27.2173 46.7181 28.2 48.7443 28.2 51C28.2 55.1973 24.7974 58.6 20.6 58.6C16.4026 58.6 13 55.1973 13 51C13 48.1869 14.5284 45.7308 16.8 44.4167V19.5832C14.5284 18.2691 13 15.813 13 13C13 8.8026 16.4026 5.39996 20.6 5.39996C24.7974 5.39996 28.2 8.8026 28.2 13ZM16.8 51C16.8 48.9013 18.5013 47.2 20.6 47.2C22.6987 47.2 24.4 48.9013 24.4 51C24.4 53.0986 22.6987 54.8 20.6 54.8C18.5013 54.8 16.8 53.0986 16.8 51ZM24.4 13C24.4 15.0986 22.6987 16.8 20.6 16.8C18.5013 16.8 16.8 15.0986 16.8 13C16.8 10.9013 18.5013 9.19996 20.6 9.19996C22.6987 9.19996 24.4 10.9013 24.4 13ZM39.6 20.6C39.6 22.694 41.2938 24.3925 43.3861 24.4H43.4138C45.5061 24.3925 47.2 22.694 47.2 20.6C47.2 18.5013 45.4986 16.8 43.4 16.8C41.3013 16.8 39.6 18.5013 39.6 20.6Z" fill="black"/>
<circle cx="44.35" cy="51.95" r="6.65" fill="#0073DE"/>
</svg>
