<svg width="500" height="500" viewBox="0 0 500 500" fill="none" xmlns="http://www.w3.org/2000/svg">
<rect width="500" height="500" rx="50" fill="white"/>
<path d="M449.318 284.209C449.318 375.396 375.396 449.318 284.209 449.318L284.209 284.209L449.318 284.209Z" fill="black"/>
<path d="M449.318 50.6824V215.791C358.131 215.791 284.209 141.869 284.209 50.6824L449.318 50.6824Z" fill="black"/>
<path d="M215.791 50.6824L215.791 215.791L50.6824 215.791C50.6824 124.604 124.604 50.6824 215.791 50.6824Z" fill="black"/>
<path d="M50.6824 284.209C141.869 284.209 215.791 358.131 215.791 449.318H50.6824L50.6824 284.209Z" fill="black"/>
<path d="M274.211 225.831V274.169H225.79V225.831H274.211Z" fill="#138DFF"/>
<path d="M191.657 284.21C205.005 284.21 215.868 295.03 215.868 308.379C215.868 321.727 205.005 332.547 191.657 332.547C178.309 332.547 167.447 321.727 167.447 308.379C167.447 295.03 178.309 284.21 191.657 284.21Z" fill="black"/>
<path d="M308.419 167.446C321.768 167.446 332.63 178.267 332.63 191.615C332.63 204.963 321.768 215.784 308.419 215.784C295.071 215.784 284.209 204.963 284.209 191.615C284.209 178.267 295.071 167.446 308.419 167.446Z" fill="black"/>
</svg>
